<svg height="320" width="320" shapeRendering="crispEdges" viewBox="0 0 29 29" xmlns="http://www.w3.org/2000/svg" style="width: 320px; height: 320px;"><path fill="#fff" d="M0,0 h29v29H0z"></path><path fill="#000" d="M0 0h7v1H0zM8 0h4v1H8zM13 0h3v1H13zM17 0h1v1H17zM22,0 h7v1H22zM0 1h1v1H0zM6 1h1v1H6zM11 1h5v1H11zM17 1h3v1H17zM22 1h1v1H22zM28,1 h1v1H28zM0 2h1v1H0zM2 2h3v1H2zM6 2h1v1H6zM9 2h1v1H9zM11 2h1v1H11zM13 2h2v1H13zM18 2h2v1H18zM22 2h1v1H22zM24 2h3v1H24zM28,2 h1v1H28zM0 3h1v1H0zM2 3h3v1H2zM6 3h1v1H6zM10 3h2v1H10zM14 3h2v1H14zM17 3h1v1H17zM20 3h1v1H20zM22 3h1v1H22zM24 3h3v1H24zM28,3 h1v1H28zM0 4h1v1H0zM2 4h3v1H2zM6 4h1v1H6zM10 4h4v1H10zM15 4h1v1H15zM18 4h2v1H18zM22 4h1v1H22zM24 4h3v1H24zM28,4 h1v1H28zM0 5h1v1H0zM6 5h1v1H6zM9 5h1v1H9zM11 5h1v1H11zM13 5h2v1H13zM18 5h1v1H18zM20 5h1v1H20zM22 5h1v1H22zM28,5 h1v1H28zM0 6h7v1H0zM8 6h1v1H8zM10 6h1v1H10zM12 6h1v1H12zM14 6h1v1H14zM16 6h1v1H16zM18 6h1v1H18zM20 6h1v1H20zM22,6 h7v1H22zM8 7h2v1H8zM12 7h1v1H12zM14 7h1v1H14zM0 8h2v1H0zM3 8h2v1H3zM6 8h1v1H6zM9 8h1v1H9zM12 8h6v1H12zM19 8h2v1H19zM22 8h1v1H22zM28,8 h1v1H28zM0 9h1v1H0zM2 9h3v1H2zM10 9h1v1H10zM14 9h1v1H14zM17 9h3v1H17zM21 9h1v1H21zM23 9h2v1H23zM26 9h2v1H26zM0 10h1v1H0zM6 10h1v1H6zM9 10h1v1H9zM12 10h1v1H12zM14 10h1v1H14zM24 10h1v1H24zM26 10h1v1H26zM3 11h1v1H3zM14 11h2v1H14zM17 11h1v1H17zM19 11h5v1H19zM25 11h1v1H25zM28,11 h1v1H28zM0 12h1v1H0zM4 12h1v1H4zM6 12h2v1H6zM9 12h2v1H9zM13 12h2v1H13zM16 12h1v1H16zM20 12h1v1H20zM22 12h1v1H22zM28,12 h1v1H28zM0 13h3v1H0zM4 13h2v1H4zM7 13h2v1H7zM10 13h1v1H10zM12 13h1v1H12zM20,13 h9v1H20zM0 14h3v1H0zM4 14h1v1H4zM6 14h3v1H6zM14 14h2v1H14zM18 14h5v1H18zM26 14h1v1H26zM28,14 h1v1H28zM0 15h1v1H0zM3 15h2v1H3zM7 15h1v1H7zM10 15h1v1H10zM12 15h3v1H12zM16 15h1v1H16zM18 15h1v1H18zM23 15h1v1H23zM26 15h1v1H26zM28,15 h1v1H28zM3 16h1v1H3zM5 16h3v1H5zM10 16h3v1H10zM15 16h1v1H15zM19 16h2v1H19zM23 16h1v1H23zM25 16h1v1H25zM0 17h5v1H0zM8 17h2v1H8zM11 17h1v1H11zM15 17h1v1H15zM17 17h1v1H17zM19 17h2v1H19zM24 17h1v1H24zM26 17h2v1H26zM0 18h2v1H0zM3 18h1v1H3zM5 18h3v1H5zM9 18h1v1H9zM12 18h5v1H12zM18 18h2v1H18zM24 18h2v1H24zM28,18 h1v1H28zM0 19h5v1H0zM9 19h3v1H9zM13 19h1v1H13zM16 19h1v1H16zM25 19h2v1H25zM0 20h2v1H0zM4 20h3v1H4zM8 20h1v1H8zM11 20h1v1H11zM13 20h1v1H13zM16 20h2v1H16zM20 20h8v1H20zM8 21h3v1H8zM12 21h2v1H12zM15 21h1v1H15zM17 21h2v1H17zM20 21h1v1H20zM24 21h2v1H24zM0 22h7v1H0zM10 22h2v1H10zM13 22h1v1H13zM15 22h6v1H15zM22 22h1v1H22zM24 22h2v1H24zM0 23h1v1H0zM6 23h1v1H6zM10 23h4v1H10zM16 23h5v1H16zM24 23h1v1H24zM27,23 h2v1H27zM0 24h1v1H0zM2 24h3v1H2zM6 24h1v1H6zM8 24h1v1H8zM10 24h4v1H10zM16 24h1v1H16zM19 24h7v1H19zM27,24 h2v1H27zM0 25h1v1H0zM2 25h3v1H2zM6 25h1v1H6zM8 25h1v1H8zM13 25h4v1H13zM18 25h1v1H18zM28,25 h1v1H28zM0 26h1v1H0zM2 26h3v1H2zM6 26h1v1H6zM9 26h1v1H9zM11 26h3v1H11zM15 26h2v1H15zM18 26h2v1H18zM21 26h1v1H21zM23 26h2v1H23zM26,26 h3v1H26zM0 27h1v1H0zM6 27h1v1H6zM8 27h4v1H8zM15 27h2v1H15zM21 27h1v1H21zM24 27h3v1H24zM28,27 h1v1H28zM0 28h7v1H0zM8 28h1v1H8zM10 28h1v1H10zM14 28h2v1H14zM19 28h4v1H19zM24 28h2v1H24z"></path></svg>